<?xml version="1.0" encoding="UTF-8"?>
<svg  version="1.1" x="0px" y="0px" width="35" height="35" viewBox="0 0 35 35" xmlns="http://www.w3.org/2000/svg" xmlns:xlink="http://www.w3.org/1999/xlink">
    <g>
        <path d="M33.2 5s-.7.1-1.4.1c-.5-.9-1.4-1.5-2.5-1.5-1.5 0-2.8 1.2-2.9 2.7l-2.9 1c-1.8-2.1-4.5-3.5-7.6-3.5-5.2 0-9.4 4-9.9 9.1l-1.8.6c-.3-.3-.7-.4-1.2-.4-1 0-1.9.8-1.9 1.9 0 1 .8 1.9 1.9 1.9.9 0 1.6-.6 1.8-1.4l1.2-.3c.2 1.4.7 2.8 1.4 3.9l.8-2.7c-.3-.8-.4-1.6-.4-2.5 0-4.5 3.6-8.1 8-8.1s8 3.6 8 8.1c0 1.5-.4 2.9-1.1 4.1l.6 2.4c1.6-1.7 2.5-4 2.5-6.6 0-1.6-.4-3.1-1-4.4l2.3-1c.5.6 1.3 1 2.2 1 1.6 0 2.9-1.3 2.9-2.9v-.4l1-1.1z"/>
        <path d="M16.1 11.7 16 9.1l-.2-.1c-1 .8-3.2 2.8-3.2 2.8l-2 12 3.1 2.7 1.7-4.7.6 11.1 4.3-6.9-2.1-13.6-2.1-.7z"/>
    </g>
</svg>